<svg width="30" height="28" viewBox="0 0 30 28" fill="none" xmlns="http://www.w3.org/2000/svg">
<g clip-path="url(#clip0_2705_61766)">
<path d="M18.7801 13.2992L6.95557 11.1992V26.7161C6.95557 27.4248 7.52638 27.9992 8.23053 27.9992H28.6341C29.3382 27.9992 29.9091 27.4248 29.9091 26.7161V20.9992L18.7801 13.2992Z" fill="#185C37"/>
<path d="M18.7802 0H8.23059C7.52644 0 6.95563 0.57446 6.95563 1.2831V7L18.7802 14L25.0402 16.1L29.9091 14V7L18.7802 0Z" fill="#21A366"/>
<path d="M6.95563 7H18.7802V14H6.95563V7Z" fill="#107C41"/>
<path opacity="0.1" d="M15.4185 5.59961H6.95557V23.0996H15.4185C16.1216 23.0973 16.6911 22.5242 16.6934 21.8165V6.88271C16.6911 6.17503 16.1216 5.60191 15.4185 5.59961Z" fill="black"/>
<path opacity="0.2" d="M14.7229 6.30078H6.95557V23.8008H14.7229C15.4261 23.7985 15.9956 23.2254 15.9978 22.5177V7.58388C15.9956 6.8762 15.4261 6.30308 14.7229 6.30078Z" fill="black"/>
<path opacity="0.2" d="M14.7229 6.30078H6.95557V22.4008H14.7229C15.4261 22.3985 15.9956 21.8254 15.9978 21.1177V7.58388C15.9956 6.8762 15.4261 6.30308 14.7229 6.30078Z" fill="black"/>
<path opacity="0.2" d="M14.0273 6.30078H6.95557V22.4008H14.0273C14.7305 22.3985 15.3 21.8254 15.3023 21.1177V7.58388C15.3 6.8762 14.7305 6.30308 14.0273 6.30078Z" fill="black"/>
<path d="M1.27496 6.30078H14.0274C14.7315 6.30078 15.3023 6.87524 15.3023 7.58388V20.4177C15.3023 21.1263 14.7315 21.7008 14.0274 21.7008H1.27496C0.570817 21.7008 0 21.1263 0 20.4177V7.58388C0 6.87524 0.570817 6.30078 1.27496 6.30078Z" fill="url(#paint0_linear_2705_61766)"/>
<path d="M3.94867 18.17L6.63075 13.9875L4.17334 9.82812H6.15011L7.49115 12.4881C7.61497 12.7408 7.69982 12.9284 7.74574 13.0523H7.76312C7.85123 12.8507 7.94397 12.655 8.04135 12.465L9.47489 9.82953H11.2896L8.76959 13.9644L11.3536 18.17H9.42274L7.87372 15.2503C7.80075 15.1261 7.73884 14.9956 7.68871 14.8604H7.66576C7.62038 14.9929 7.56018 15.1197 7.4863 15.2384L5.89138 18.17H3.94867Z" fill="white"/>
<path d="M28.6342 0H18.7802V7H29.9091V1.2831C29.9091 0.57446 29.3383 0 28.6342 0Z" fill="#33C481"/>
<path d="M18.7802 14H29.9091V21H18.7802V14Z" fill="#107C41"/>
</g>
<defs>
<linearGradient id="paint0_linear_2705_61766" x1="2.65832" y1="5.29819" x2="12.7396" y2="22.6478" gradientUnits="userSpaceOnUse">
<stop stop-color="#18884F"/>
<stop offset="0.5" stop-color="#117E43"/>
<stop offset="1" stop-color="#0B6631"/>
</linearGradient>
<clipPath id="clip0_2705_61766">
<rect width="29.9091" height="28" fill="white"/>
</clipPath>
</defs>
</svg>
